[center][img]http://leetleech.org/images/48847483444565804296.jpg[/img]



[img]http://leetleech.org/images/48874973695367351744.png[/img]


Format                           : AVI
Format/Info                      : Audio Video Interleave
File size                        : 718 MiB
Duration                         : 1h 30mn
Overall bit rate                 : 1 112 Kbps
Writing application              : VirtualDubMod 1.5.10.2 (build 2542/release)
Writing library                  : VirtualDub build 32839/release

Video
ID                               : 0
Format                           : MPEG-4 Visual
Format profile                   : Advanced Simple@L5
Format settings, BVOP            : Yes
Format settings, QPel            : No
Format settings, GMC             : No warppoints
Format settings, Matrix          : Custom
Codec ID                         : XVID
Codec ID/Hint                    : XviD
Duration                         : 1h 30mn
Bit rate                         : 965 Kbps
Width                            : 692 pixels
Height                           : 292 pixels
Display aspect ratio             : 2.35:1
Frame rate                       : 23.976 fps
Color space                      : YUV
Chroma subsampling               : 4:2:0
Bit depth                        : 8 bits
Scan type                        : Progressive
Bits/(Pixel*Frame)               : 0.199
Stream size                      : 623 MiB (87%)
Writing library                  : XviD 1.2.1 (UTC 2008-12-04)

Audio
ID                               : 1
Format                           : MPEG Audio
Format version                   : Version 1
Format profile                   : Layer 3
Mode                             : Joint stereo
Mode extension                   : MS Stereo
Codec ID                         : 55
Codec ID/Hint                    : MP3
Duration                         : 1h 30mn
Bit rate mode                    : Variable
Bit rate                         : 134 Kbps
Minimum bit rate                 : 32.0 Kbps
Channel(s)                       : 2 channels
Sampling rate                    : 48.0 KHz
Stream size                      : 86.7 MiB (12%)
Alignment                        : Aligned on interleaves
Interleave, duration             : 24 ms (0.58 video frame)
Interleave, preload duration     : 137 ms
Writing library                  : LAME3.98r
Encoding settings                : -m j -V 4 -q 0 -lowpass 17.5 --vbr-new -b 32




[url]http://www.imdb.com/title/tt1265990/[/url]




[IMG]http://leetleech.org/images/89524873606771859129.png[/IMG]


Users: 4.3/10 (1,963 votes) 38 reviews | Critics: 93 reviews Metascore: 23/100 (based on 16 reviews from Metacritic.com)

College student Sara finds that her new roommate Rebecca has an obsession with her, which quickly turns violent.
Director:
Christian E. Christiansen
Writer:
Sonny Mallhi
Stars:
Minka Kelly, Leighton Meester and Cam Gigandet 



[img]http://leetleech.org/images/95521316153253938506.png[/img]




[img]http://img855.imageshack.us/img855/2407/vlcsnap2011041717h30m32.png[/img]

[img]http://img41.imageshack.us/img41/8295/vlcsnap2011041717h30m48.png[/img]

[img]http://img607.imageshack.us/img607/6210/vlcsnap2011041717h30m43.png[/img]


Source ARROW ............... Thanks 




Greetz to Imagine ,Flawl3ss,DiLLoN,BDK,NOiR,TOXiCiNK,THC,Ez,Rx,Boobyblue





[img]http://img411.imageshack.us/img411/6898/sig1n.jpg[/img]





[/center]